<?xml version="1.0" encoding="UTF-8" standalone="no"?>
<!DOCTYPE svg PUBLIC "-//W3C//DTD SVG 1.1//EN" "http://www.w3.org/Graphics/SVG/1.1/DTD/svg11.dtd">
<svg width="100%" height="100%" viewBox="0 0 50 50" version="1.1" xmlns="http://www.w3.org/2000/svg" xmlns:xlink="http://www.w3.org/1999/xlink" xml:space="preserve" xmlns:serif="http://www.serif.com/" style="fill-rule:evenodd;clip-rule:evenodd;stroke-linecap:round;stroke-linejoin:round;stroke-miterlimit:1.5;">
    <g transform="matrix(0.782052,0,0,0.782052,2.88594,10.7052)">
        <g>
            <g transform="matrix(0.58235,0,0,0.58235,5.99722,17.0451)">
                <path d="M11.618,32.606C11.413,32.608 11.209,32.568 11.019,32.49C10.828,32.413 10.655,32.298 10.509,32.153C10.363,32.008 10.246,31.835 10.167,31.645C10.088,31.454 10.047,31.25 10.047,31.044C10.047,30.837 10.088,30.633 10.167,30.443C10.246,30.253 10.363,30.08 10.509,29.934L18.79,21.669L10.509,13.403C10.363,13.257 10.248,13.085 10.169,12.894C10.09,12.704 10.05,12.5 10.05,12.294C10.05,12.088 10.09,11.884 10.169,11.693C10.248,11.503 10.363,11.33 10.509,11.184C10.655,11.039 10.828,10.923 11.018,10.844C11.208,10.765 11.412,10.725 11.618,10.725C11.825,10.725 12.028,10.765 12.219,10.844C12.409,10.923 12.582,11.039 12.728,11.184L22.103,20.559C22.249,20.705 22.366,20.877 22.445,21.068C22.524,21.258 22.565,21.462 22.565,21.669C22.565,21.875 22.524,22.079 22.445,22.27C22.366,22.46 22.249,22.633 22.103,22.778L12.728,32.153C12.582,32.298 12.409,32.413 12.218,32.49C12.028,32.568 11.824,32.608 11.618,32.606Z" style="fill-rule:nonzero;"/>
            </g>
            <g transform="matrix(0.58235,0,0,0.58235,11.8507,17.0451)">
                <path d="M11.618,32.606C11.413,32.608 11.209,32.568 11.019,32.49C10.828,32.413 10.655,32.298 10.509,32.153C10.363,32.008 10.246,31.835 10.167,31.645C10.088,31.454 10.047,31.25 10.047,31.044C10.047,30.837 10.088,30.633 10.167,30.443C10.246,30.253 10.363,30.08 10.509,29.934L18.79,21.669L10.509,13.403C10.363,13.257 10.248,13.085 10.169,12.894C10.09,12.704 10.05,12.5 10.05,12.294C10.05,12.088 10.09,11.884 10.169,11.693C10.248,11.503 10.363,11.33 10.509,11.184C10.655,11.039 10.828,10.923 11.018,10.844C11.208,10.765 11.412,10.725 11.618,10.725C11.825,10.725 12.028,10.765 12.219,10.844C12.409,10.923 12.582,11.039 12.728,11.184L22.103,20.559C22.249,20.705 22.366,20.877 22.445,21.068C22.524,21.258 22.565,21.462 22.565,21.669C22.565,21.875 22.524,22.079 22.445,22.27C22.366,22.46 22.249,22.633 22.103,22.778L12.728,32.153C12.582,32.298 12.409,32.413 12.218,32.49C12.028,32.568 11.824,32.608 11.618,32.606Z" style="fill-rule:nonzero;"/>
            </g>
            <g transform="matrix(0.58235,0,0,0.58235,18.2484,17.0451)">
                <path d="M11.618,32.606C11.413,32.608 11.209,32.568 11.019,32.49C10.828,32.413 10.655,32.298 10.509,32.153C10.363,32.008 10.246,31.835 10.167,31.645C10.088,31.454 10.047,31.25 10.047,31.044C10.047,30.837 10.088,30.633 10.167,30.443C10.246,30.253 10.363,30.08 10.509,29.934L18.79,21.669L10.509,13.403C10.363,13.257 10.248,13.085 10.169,12.894C10.09,12.704 10.05,12.5 10.05,12.294C10.05,12.088 10.09,11.884 10.169,11.693C10.248,11.503 10.363,11.33 10.509,11.184C10.655,11.039 10.828,10.923 11.018,10.844C11.208,10.765 11.412,10.725 11.618,10.725C11.825,10.725 12.028,10.765 12.219,10.844C12.409,10.923 12.582,11.039 12.728,11.184L22.103,20.559C22.249,20.705 22.366,20.877 22.445,21.068C22.524,21.258 22.565,21.462 22.565,21.669C22.565,21.875 22.524,22.079 22.445,22.27C22.366,22.46 22.249,22.633 22.103,22.778L12.728,32.153C12.582,32.298 12.409,32.413 12.218,32.49C12.028,32.568 11.824,32.608 11.618,32.606Z" style="fill-rule:nonzero;"/>
            </g>
            <g transform="matrix(0.695374,0,0,0.634449,18.2664,13.6163)">
                <path d="M33.54,40.419L22.555,40.419C22.14,40.419 21.743,40.254 21.45,39.961C21.157,39.668 20.992,39.271 20.992,38.856C20.992,38.442 21.157,38.045 21.45,37.752C21.743,37.458 22.14,37.294 22.555,37.294L33.54,37.294C33.954,37.294 34.351,37.458 34.644,37.752C34.938,38.045 35.102,38.442 35.102,38.856C35.102,39.271 34.938,39.668 34.644,39.961C34.351,40.254 33.954,40.419 33.54,40.419Z" style="fill-rule:nonzero;"/>
            </g>
        </g>
    </g>
    <g transform="matrix(0.620185,0,0,0.565848,-0.867329,-8.45212)">
        <path d="M56.625,40.419L22.555,40.419C22.14,40.419 21.743,40.254 21.45,39.961C21.157,39.668 20.992,39.271 20.992,38.856C20.992,38.442 21.157,38.045 21.45,37.752C21.743,37.458 22.14,37.294 22.555,37.294L56.625,37.294C57.039,37.294 57.436,37.458 57.729,37.752C58.023,38.045 58.187,38.442 58.187,38.856C58.187,39.271 58.023,39.668 57.729,39.961C57.436,40.254 57.039,40.419 56.625,40.419Z" style="fill-rule:nonzero;"/>
    </g>
    <g transform="matrix(0.620185,0,0,0.565848,-0.867329,-3.06019)">
        <path d="M43.725,40.419L22.555,40.419C22.14,40.419 21.743,40.254 21.45,39.961C21.157,39.668 20.992,39.271 20.992,38.856C20.992,38.442 21.157,38.045 21.45,37.752C21.743,37.458 22.14,37.294 22.555,37.294L43.725,37.294C44.14,37.294 44.537,37.458 44.83,37.752C45.123,38.045 45.288,38.442 45.288,38.856C45.288,39.271 45.123,39.668 44.83,39.961C44.537,40.254 44.14,40.419 43.725,40.419Z" style="fill-rule:nonzero;"/>
    </g>
    <g transform="matrix(0.620185,0,0,0.565848,-0.867329,-5.70466)">
        <path d="M53.4,40.419L22.555,40.419C22.14,40.419 21.743,40.254 21.45,39.961C21.157,39.668 20.992,39.271 20.992,38.856C20.992,38.442 21.157,38.045 21.45,37.752C21.743,37.458 22.14,37.294 22.555,37.294L53.4,37.294C53.814,37.294 54.212,37.458 54.505,37.752C54.798,38.045 54.962,38.442 54.962,38.856C54.962,39.271 54.798,39.668 54.505,39.961C54.212,40.254 53.814,40.419 53.4,40.419Z" style="fill-rule:nonzero;"/>
    </g>
    <g transform="matrix(0.620185,0,0,0.565848,-0.867329,-0.312722)">
        <path d="M56.625,40.419L22.555,40.419C22.14,40.419 21.743,40.254 21.45,39.961C21.157,39.668 20.992,39.271 20.992,38.856C20.992,38.442 21.157,38.045 21.45,37.752C21.743,37.458 22.14,37.294 22.555,37.294L56.625,37.294C57.039,37.294 57.436,37.458 57.729,37.752C58.023,38.045 58.187,38.442 58.187,38.856C58.187,39.271 58.023,39.668 57.729,39.961C57.436,40.254 57.039,40.419 56.625,40.419Z" style="fill-rule:nonzero;"/>
    </g>
    <g transform="matrix(0.620185,0,0,0.565848,-0.867329,2.51089)">
        <path d="M50.175,40.419L22.555,40.419C22.14,40.419 21.743,40.254 21.45,39.961C21.157,39.668 20.992,39.271 20.992,38.856C20.992,38.442 21.157,38.045 21.45,37.752C21.743,37.458 22.14,37.294 22.555,37.294L50.175,37.294C50.59,37.294 50.987,37.458 51.28,37.752C51.573,38.045 51.738,38.442 51.738,38.856C51.738,39.271 51.573,39.668 51.28,39.961C50.987,40.254 50.59,40.419 50.175,40.419Z" style="fill-rule:nonzero;"/>
    </g>
    <g transform="matrix(1,0,0,1,-2,0)">
        <path d="M24.299,7L11,7L11,45L41,45L41,34" style="fill:none;stroke:black;stroke-width:2.3px;"/>
    </g>
</svg>
